<?xml version="1.0" encoding="UTF-8"?>
<svg width="20px" height="20px" viewBox="0 0 20 20" version="1.1" xmlns="http://www.w3.org/2000/svg" xmlns:xlink="http://www.w3.org/1999/xlink">
    <!-- Generator: Sketch 59.1 (86144) - https://sketch.com -->
    <title>icon/一级菜单icon/医保备份 3</title>
    <desc>Created with Sketch.</desc>
    <g id="icon/一级菜单icon/医保备份-3" stroke="none" stroke-width="1" fill="none" fill-rule="evenodd">
        <g id="编组" transform="translate(0.000000, 3.000000)" fill="#4891FE" fill-rule="nonzero">
            <path d="M17.6955566,0 L2.30250611,0 C1.03115011,0 0,0.99551808 0,2.22294159 L0,12.2233732 C0,13.4507967 1.03115011,14.4444444 2.30250611,14.4444444 L17.6974939,14.4444444 C18.9688499,14.4444444 20,13.4489264 20,12.2233732 L20,2.22294159 C19.9980419,0.99551808 18.9668917,0 17.6955357,0 L17.6955357,0 L17.6955566,0 Z M12.8073635,4.41195513 L16.0043246,4.41195513 C16.2582167,4.41195513 16.4925689,4.74568497 16.4925689,4.99078353 C16.4925689,5.23588209 16.2582167,5.56961193 16.0043246,5.56961193 L12.8073635,5.56961193 C12.5534922,5.56961193 12.3191399,5.23588209 12.3191399,4.99078353 C12.3191399,4.74568497 12.5534922,4.41195513 12.8073635,4.41195513 L12.8073635,4.41195513 Z M12.8073635,6.88566672 L16.0043246,6.88566672 C16.2582167,6.88566672 16.4925689,7.21939656 16.4925689,7.46449512 C16.4925689,7.70959368 16.2582167,8.04332352 16.0043246,8.04332352 L12.8073635,8.04332352 C12.5534922,8.04332352 12.3191399,7.70959368 12.3191399,7.46449512 C12.3191399,7.21937645 12.5534922,6.88566672 12.8073635,6.88566672 L12.8073635,6.88566672 Z M2.37085366,11.1863853 C2.12087787,11.139244 1.95683127,10.9073385 2.00565987,10.6660008 C2.30250611,9.16894274 3.46060225,8.01504679 4.92139824,7.60967987 C4.16365915,7.21750608 3.64027235,6.45389343 3.64027235,5.56585108 C3.64027235,4.28185399 4.72218837,3.23919461 6.05018472,3.23919461 C7.37818107,3.23919461 8.46011793,4.28374447 8.46011793,5.56585108 C8.46011793,6.45389343 7.93673113,7.21750608 7.17899204,7.60967987 C8.64370431,8.01504679 9.80177962,9.17461418 10.0947304,10.6773035 C10.1416009,10.9186412 9.97755426,11.1505466 9.72757847,11.1957974 L9.72757847,11.1957974 C9.69828964,11.2014488 9.66897998,11.2033392 9.6416493,11.2033392 M17.5412799,10.5170351 L12.8073635,10.5170351 C12.5534922,10.5170351 12.3191399,10.1833053 12.3191399,9.93820672 C12.3191399,9.69310815 12.5534922,9.35937831 12.8073635,9.35937831 L17.5412799,9.35937831 C17.7951719,9.35937831 18.0295242,9.69310815 18.0295242,9.93820672 C18.0295242,10.1833053 17.7951719,10.5170351 17.5412799,10.5170351 L17.5412799,10.5170351 Z" id="形状"></path>
        </g>
    </g>
</svg>