<?xml version="1.0" encoding="UTF-8"?>
<svg width="20px" height="20px" viewBox="0 0 20 20" version="1.1" xmlns="http://www.w3.org/2000/svg" xmlns:xlink="http://www.w3.org/1999/xlink">
    <!-- Generator: Sketch 59.1 (86144) - https://sketch.com -->
    <title>icon/一级菜单icon/医保备份 5</title>
    <desc>Created with Sketch.</desc>
    <g id="icon/一级菜单icon/医保备份-5" stroke="none" stroke-width="1" fill="none" fill-rule="evenodd">
        <g id="编组" transform="translate(0.000000, 1.000000)" fill="#4891FE" fill-rule="nonzero">
            <path d="M10.0887325,5.94823529 C10.0894378,4.36565126 11.3710676,3.08229933 12.9536147,3.07952206 C14.5366572,3.08160056 15.8190587,4.36515689 15.8197468,5.94823529 C15.8183696,7.53081844 14.5361808,8.81361099 12.9536331,8.81569853 C11.3715592,8.8129428 10.0901083,7.5303456 10.0887325,5.94823529 M19.3434381,1.73930147 C19.3434381,0.838272059 18.6118364,0.105404412 17.7409731,0.105404412 L17.7397048,0.105404412 C17.7121135,0.104154412 14.8823592,0 12.7453104,0 C10.2857503,0 10.0636412,0.119209559 9.79761758,0.385257353 L5.99407951,4.19136029 L1.11262385,9.07670956 C0.474230756,9.71970723 0.476475209,10.7580404 1.11764212,11.3982721 L8.05835418,18.3429044 C8.3695606,18.6528676 8.78116924,18.8235294 9.22161916,18.8235294 C9.66081911,18.8235294 10.0699094,18.6541176 10.3760976,18.3466728 L15.8084787,12.9129412 L19.0623597,9.65522059 C19.3497247,9.36909926 19.6195166,9.09805147 19.3434565,1.73930147" id="形状"></path>
        </g>
    </g>
</svg>