<?xml version="1.0" encoding="UTF-8"?>
<svg width="20px" height="20px" viewBox="0 0 20 20" version="1.1" xmlns="http://www.w3.org/2000/svg" xmlns:xlink="http://www.w3.org/1999/xlink">
    <!-- Generator: Sketch 59.1 (86144) - https://sketch.com -->
    <title>icon/一级菜单icon/医保备份 7</title>
    <desc>Created with Sketch.</desc>
    <g id="icon/一级菜单icon/医保备份-7" stroke="none" stroke-width="1" fill="none" fill-rule="evenodd">
        <g id="编组" transform="translate(1.000000, 1.000000)" fill="#4891FE" fill-rule="nonzero">
            <path d="M18.2875006,19 L0.712499443,19 C0.318996867,19 0,18.6810031 0,18.2875006 L0,0.712499443 C0,0.318996867 0.318996867,0 0.712499443,0 C1.10600202,0 1.42499889,0.318996867 1.42499889,0.712499443 L1.42499889,17.5750011 L18.2875006,17.5750011 C18.6810031,17.5750011 19,17.893998 19,18.2875006 C19,18.6810031 18.6810031,19 18.2875006,19 Z M17.0999866,16.6249944 L15.6749878,16.6249944 C15.1503222,16.6249944 14.7250033,16.1996533 14.7250033,15.6749878 L14.7250033,5.22500334 C14.7250033,4.70033783 15.1503222,4.27499666 15.6749878,4.27499666 L17.0999866,4.27499666 C17.3519441,4.27499666 17.593582,4.37508636 17.7717428,4.55324717 C17.9499036,4.73140799 18.0499933,4.9730459 18.0499933,5.22500334 L18.0499933,15.6749878 C18.0499933,15.9269452 17.9499036,16.1685831 17.7717428,16.3467439 C17.593582,16.5249047 17.3519441,16.6249944 17.0999866,16.6249944 L17.0999866,16.6249944 Z M11.3999911,16.6249944 L9.97499221,16.6249944 C9.4503267,16.6249944 9.02500779,16.1996533 9.02500779,15.6749878 L9.02500779,7.12499443 C9.02500779,6.60033762 9.4503354,6.17501002 9.97499221,6.17501002 L11.3999911,6.17501002 C11.9246566,6.17501002 12.3499978,6.60032893 12.3499978,7.12499443 L12.3499978,15.6749878 C12.3499978,15.9269452 12.2499081,16.1685831 12.0717473,16.3467439 C11.8935864,16.5249047 11.6519485,16.6249944 11.3999911,16.6249944 L11.3999911,16.6249944 Z M5.69999555,16.6249944 L4.27499666,16.6249944 C3.75033115,16.6249944 3.32501225,16.1996533 3.32501225,15.6749878 L3.32501225,3.32501225 C3.32501225,2.80034674 3.75033115,2.37500557 4.27499666,2.37500557 L5.69999555,2.37500557 C5.95195298,2.37500557 6.1935909,2.47509527 6.37175171,2.65325608 C6.54991252,2.83141689 6.65000223,3.07305481 6.65000223,3.32501225 L6.65000223,15.6749878 C6.65000223,16.199662 6.22466975,16.6249944 5.69999555,16.6249944 L5.69999555,16.6249944 Z" id="形状"></path>
        </g>
    </g>
</svg>