<?xml version="1.0" encoding="UTF-8"?>
<svg width="48px" height="289px" viewBox="0 0 48 289" version="1.1" xmlns="http://www.w3.org/2000/svg" xmlns:xlink="http://www.w3.org/1999/xlink">
    <!-- Generator: Sketch 59.1 (86144) - https://sketch.com -->
    <title>编组 4</title>
    <desc>Created with Sketch.</desc>
    <g id="pc版本" stroke="none" stroke-width="1" fill="none" fill-rule="evenodd">
        <g id="登录页" transform="translate(-281.000000, -163.000000)" fill="#FFFFFF">
            <g id="编组-4" transform="translate(304.500000, 308.000000) rotate(-270.000000) translate(-304.500000, -308.000000) translate(160.000000, 275.000000)">
                <text id="Customer" font-family="PingFangSC-Medium, PingFang SC" font-size="47" font-weight="400">
                    <tspan x="72" y="50">Customer</tspan>
                </text>
                <g id="编组" transform="translate(0.000000, 9.000000)" fill-rule="nonzero">
                    <path d="M24.3664928,46.6956891 L1.07850376,32.8976734 C0.409576083,32.4946425 0,31.7668677 0,30.9812824 C0,30.1956971 0.409576083,29.4679222 1.07850376,29.0648913 L24.3664928,15.3052035 C25.0597599,14.8982655 25.9164769,14.8982655 26.609744,15.3052035 L49.9214962,29.0409365 C50.5904239,29.4439674 51,30.1717422 51,30.9573275 C51,31.7429128 50.5904239,32.4706877 49.9214962,32.8737186 L26.6335072,46.6717342 C25.9400739,47.1006626 25.068693,47.1098702 24.3664928,46.6956891 L24.3664928,46.6956891 Z" id="路径" opacity="0.8"></path>
                    <path d="M1.09775735,17.8910566 C0.417984255,17.4910749 0,16.757097 0,15.963401 C0,15.169705 0.417984255,14.4357271 1.09775735,14.0357455 L24.3673864,0.305090699 C25.060107,-0.1016969 25.9161485,-0.1016969 26.6088691,0.305090699 L49.9022427,14.0357455 C50.5820157,14.4357271 51,15.169705 51,15.963401 C51,16.757097 50.5820157,17.4910749 49.9022427,17.8910566 L26.6326136,31.683971 C25.9353395,32.105343 25.0646605,32.105343 24.3673864,31.683971 L1.09775735,17.8910566 Z" id="路径" opacity="0.7"></path>
                </g>
            </g>
        </g>
    </g>
</svg>