<?xml version="1.0" encoding="UTF-8"?>
<svg width="26px" height="26px" viewBox="0 0 26 26" version="1.1" xmlns="http://www.w3.org/2000/svg" xmlns:xlink="http://www.w3.org/1999/xlink">
    <!-- Generator: Sketch 59.1 (86144) - https://sketch.com -->
    <title>编组</title>
    <desc>Created with Sketch.</desc>
    <g id="pc版本" stroke="none" stroke-width="1" fill="none" fill-rule="evenodd">
        <g id="销售管理" transform="translate(-404.000000, -1304.000000)" fill-rule="nonzero">
            <g id="编组-15" transform="translate(404.000000, 1304.000000)">
                <g id="编组">
                    <path d="M0,3 C0,4.989 4.47727273,6.6 10,6.6 C15.5227273,6.6 20,4.989 20,3 L20,9.7446 C18.3209091,10.9848 14.4936364,12 10,12 C5.50636364,12 1.67909091,10.9848 0,9.7446 L0,3 Z" id="路径" fill="#00A1FF"></path>
                    <path d="M0,11 C2.09363636,12.351832 5.78909091,13.2504821 10,13.2504821 C14.2109091,13.2504821 17.9063636,12.351832 20,11 L20,17.5836726 C18.3209091,18.9123634 14.4936364,20 10,20 C5.50636364,20 1.67909091,18.9123634 0,17.5836726 L0,11 Z" id="路径" fill="#00A1FF"></path>
                    <path d="M10,20.2404608 C14.2109091,20.2404608 17.9063636,19.3458123 20,18 L20,21.6803456 C20,24.0657547 15.5227273,26 10,26 C4.47727273,26 0,24.0657547 0,21.6803456 L0,18 C2.09363636,19.3458123 5.78909091,20.2404608 10,20.2404608 Z" id="路径" fill="#00A1FF"></path>
                    <path d="M20,13 C23.3009231,13 26,15.6990769 26,19 C26,22.3009231 23.3009231,25 20,25 C16.6990769,25 14,22.3009231 14,19 C14,15.6990769 16.6990769,13 20,13 Z" id="路径" fill="#96D8FF"></path>
                    <path d="M15,21.0510823 C16.7190471,21.1800866 18.0944725,20.5437229 19.1272151,19.1428571 L17.5781012,17.7142857 L23,17 L22.225443,22 L20.6763291,20.5714286 C18.7648163,21.8813853 16.8730196,22.0415584 15,21.0510823 L15,21.0510823 Z" id="路径" fill="#FFFFFF"></path>
                    <path d="M1,3 C1,4.65685425 5.02943725,6 10,6 C14.9705627,6 19,4.65685425 19,3 C19,1.34314575 14.9705627,0 10,0 C5.02943725,0 1,1.34314575 1,3 Z" id="路径" fill="#96D8FF"></path>
                </g>
            </g>
        </g>
    </g>
</svg>