<?xml version="1.0" encoding="UTF-8"?>
<svg width="20px" height="20px" viewBox="0 0 20 20" version="1.1" xmlns="http://www.w3.org/2000/svg" xmlns:xlink="http://www.w3.org/1999/xlink">
    <!-- Generator: Sketch 59.1 (86144) - https://sketch.com -->
    <title>icon/一级菜单icon/医保备份 6</title>
    <desc>Created with Sketch.</desc>
    <g id="icon/一级菜单icon/医保备份-6" stroke="none" stroke-width="1" fill="none" fill-rule="evenodd">
        <g id="编组" transform="translate(0.000000, 3.000000)" fill="#4891FE" fill-rule="nonzero">
            <path d="M18.2255639,9.57894737 L17.5488722,9.57894737 L17.5488722,6.84210526 L10.7819549,6.84210526 L10.7819549,5.47368421 L12.8120301,5.47368421 C13.5585673,5.47145322 14.1632071,4.8600952 14.1654135,4.10526316 L14.1654135,1.36842105 C14.1632071,0.61358901 13.5585673,0.00223098743 12.8120301,0 L7.39849624,0 C6.65195906,0.00223098743 6.04731925,0.61358901 6.04511278,1.36842105 L6.04511278,4.10526316 C6.04731925,4.8600952 6.65195906,5.47145322 7.39849624,5.47368421 L9.42857143,5.47368421 L9.42857143,6.84210526 L2.66165414,6.84210526 L2.66165414,9.57894737 L1.98496241,9.57894737 C1.23842522,9.58117836 0.633785418,10.1925364 0.631578947,10.9473684 L0.631578947,12.3157895 C0.633785418,13.0706215 1.23842522,13.6819795 1.98496241,13.6842105 L4.69172932,13.6842105 C5.43826651,13.6819795 6.04290631,13.0706215 6.04511278,12.3157895 L6.04511278,10.9473684 C6.04290631,10.1925364 5.43826651,9.58117836 4.69172932,9.57894737 L4.01503759,9.57894737 L4.01503759,8.21052632 L9.42857143,8.21052632 L9.42857143,9.57894737 L8.7518797,9.57894737 C8.00534251,9.58117836 7.40070271,10.1925364 7.39849624,10.9473684 L7.39849624,12.3157895 C7.40070271,13.0706215 8.00534251,13.6819795 8.7518797,13.6842105 L11.4586466,13.6842105 C12.2051838,13.6819795 12.8098236,13.0706215 12.8120301,12.3157895 L12.8120301,10.9473684 C12.8098236,10.1925364 12.2051838,9.58117836 11.4586466,9.57894737 L10.7819549,9.57894737 L10.7819549,8.21052632 L16.1954887,8.21052632 L16.1954887,9.57894737 L15.518797,9.57894737 C14.7722598,9.58117836 14.16762,10.1925364 14.1654135,10.9473684 L14.1654135,12.3157895 C14.16762,13.0706215 14.7722598,13.6819795 15.518797,13.6842105 L18.2255639,13.6842105 C18.9721011,13.6819795 19.5767409,13.0706215 19.5789474,12.3157895 L19.5789474,10.9473684 C19.5767409,10.1925364 18.9721011,9.58117836 18.2255639,9.57894737 L18.2255639,9.57894737 Z" id="路径"></path>
        </g>
    </g>
</svg>