<?xml version="1.0" encoding="UTF-8"?>
<svg width="30px" height="30px" viewBox="0 0 30 30" version="1.1" xmlns="http://www.w3.org/2000/svg" xmlns:xlink="http://www.w3.org/1999/xlink">
    <!-- Generator: Sketch 59.1 (86144) - https://sketch.com -->
    <title>编组 2</title>
    <desc>Created with Sketch.</desc>
    <defs>
        <filter x="-0.8%" y="-25.0%" width="101.7%" height="150.0%" filterUnits="objectBoundingBox" id="filter-1">
            <feOffset dx="0" dy="2" in="SourceAlpha" result="shadowOffsetOuter1"></feOffset>
            <feGaussianBlur stdDeviation="2" in="shadowOffsetOuter1" result="shadowBlurOuter1"></feGaussianBlur>
            <feColorMatrix values="0 0 0 0 0   0 0 0 0 0   0 0 0 0 0  0 0 0 0.0686188811 0" type="matrix" in="shadowBlurOuter1" result="shadowMatrixOuter1"></feColorMatrix>
            <feMerge>
                <feMergeNode in="shadowMatrixOuter1"></feMergeNode>
                <feMergeNode in="SourceGraphic"></feMergeNode>
            </feMerge>
        </filter>
    </defs>
    <g id="pc版本" stroke="none" stroke-width="1" fill="none" fill-rule="evenodd">
        <g id="销售管理" transform="translate(-1358.000000, -11.000000)">
            <g id="top" filter="url(#filter-1)">
                <g id="编组-2" transform="translate(1362.000000, 13.000000)">
                    <circle id="椭圆形" fill="#0C2740" cx="11" cy="11" r="11"></circle>
                    <g id="编组" transform="translate(5.000000, 4.000000)" fill="#FFFFFF" fill-rule="nonzero">
                        <path d="M10,4 C10,6.20887226 8.20929984,8 6,8 C3.79070016,8 2,6.20929984 2,4 C2,1.79112774 3.79070016,0 6,0 C8.20929984,0 10,1.79070016 10,4 Z" id="路径"></path>
                        <path d="M8.9152785,8.89737331 C8.1007566,9.59745467 7.0911978,9.98634356 6.03045116,9.98634356 C4.95737459,9.98634356 3.93810131,9.58850535 3.11984307,8.875 C0.963228196,9.7369828 0,12.7492445 0,14.125 L12,14.125 C12,12.7614482 11.0292991,9.77033938 8.91527852,8.8977801 L8.9152785,8.89737331 Z" id="路径"></path>
                    </g>
                </g>
            </g>
        </g>
    </g>
</svg>